<svg xmlns="http://www.w3.org/2000/svg" aria-hidden="true"
    style="position:absolute;width:0;height:0;overflow:hidden">
    <defs>
        <symbol id="icon-burger-menu" viewBox="0 0 32 32">
            <path
                d="M5.333 8h21.333v2.667H5.333V8zm0 6.667h21.333v2.667H5.333v-2.667zm0 6.666h21.333V24H5.333v-2.667z" />
        </symbol>
        <symbol id="icon-x" viewBox="0 0 32 32">
            <path
                d="M21.589 8.459l-5.657 5.656-5.656-5.656-1.885 1.885 5.656 5.656-5.656 5.656 1.885 1.885 5.656-5.656 5.657 5.656 1.885-1.885-5.656-5.656 5.656-5.656-1.885-1.885z"></path>
        </symbol>
        <symbol id="icon-facebook" viewBox="0 0 31 32">
            <path
                d="M28.16 16.507c0-7.113-5.731-12.878-12.8-12.878S2.56 9.395 2.56 16.507c0 6.428 4.681 11.756 10.8 12.722V20.23h-3.25v-3.723h3.25V13.67c0-3.228 1.911-5.01 4.835-5.01 1.401 0 2.865.252 2.865.252v3.169h-1.614c-1.59 0-2.086.993-2.086 2.011v2.416h3.55l-.567 3.723H17.36v8.999c6.119-.966 10.8-6.294 10.8-12.722z" />
        </symbol>
        <symbol id="icon-logo-yoga-bloom" viewBox="0 0 108 32">
            <path
                d="M18.908 1.101c.478.237 1.015.919 1.375 1.321 3.094 3.456 4.716 7.858 4.429 12.491-.278 4.484-2.492 8.465-5.816 11.408-.629-.43-1.205-1.043-1.709-1.612-2.823-3.193-4.371-7.68-4.101-11.936.278-4.388 2.521-8.779 5.821-11.672z" />
            <path
                d="M32.075 7.376c.009.016.02.03.028.047.176.359.227.927.272 1.325.233 2.069.04 4.144-.688 6.104-1.818 4.895-6.021 8.499-10.669 10.635-.055-.001-.018.004-.102-.045.284-.465.68-.88 1.008-1.316.501-.682.955-1.396 1.359-2.139 1.424-2.62 2.104-5.5 2.102-8.471 0-.844-.02-1.687-.264-2.501.436-.484.97-.891 1.488-1.284 1.671-1.264 3.354-2.144 5.466-2.355zM5.684 7.397c.251.01.504.042.752.08 1.909.29 3.579 1.307 5.071 2.484.416.328.872.671 1.185 1.102-.793 4.074.259 8.345 2.365 11.868.336.56.7 1.103 1.089 1.628.186.25.407.477.574.74l-.059.077c-3.473-1.485-6.727-4.114-8.82-7.255-2.196-3.296-2.922-6.846-2.157-10.723z" />
            <path
                d="M35.472 16.487c.554-.066 1.795-.136 2.259.16.023.07.03.077.033.162.009.325-.203.811-.313 1.114a12.964 12.964 0 0 1-3.662 5.424c-3.259 2.881-7.483 3.915-11.749 3.641-.806-.084-1.636-.14-2.411-.387 3.574-1.099 6.974-3.345 9.437-6.15.606-.69 1.049-1.49 1.639-2.184 1.118-1.316 3.146-1.664 4.767-1.779zM1.327 16.596c1.666-.196 3.926.078 5.298 1.115.816.617 1.307 1.762 1.981 2.541a21.075 21.075 0 0 0 7.717 5.626c.632.271 1.283.553 1.952.718l-1.336.223c-3.891.56-7.924-.135-11.254-2.3C3.418 23.044 1.821 21.022.882 18.5c-.138-.37-.344-.771-.415-1.157a.665.665 0 0 1 .127-.564c.209-.154.481-.152.733-.183zM69.289 13.234c1.297-.011 2.712-.127 3.993.06.824.12 1.661.415 2.162 1.121.368.52.489 1.251.375 1.873-.14.761-.622 1.2-1.233 1.61.147.062.291.129.431.204a2.22 2.22 0 0 1 1.079 1.388c.216.806.043 1.636-.359 2.351a2.11 2.11 0 0 1-.316.371c-1.231 1.167-3.929.941-5.52.926-.306-.003-.709.025-.937-.207a.777.777 0 0 1-.085-.325c-.105-1.708-.009-3.481-.01-5.195-.001-1.214-.122-2.794.036-3.967.122-.153.2-.152.384-.209zm4.345 6.007c-.687-.448-1.844-.319-2.641-.317l.002 2.214c.884.006 1.916.143 2.7-.331.185-.272.37-.676.316-1.015-.039-.246-.173-.417-.377-.55zm-.328-3.936c-.655-.394-1.575-.294-2.312-.29v2.125c.791.006 1.734.123 2.425-.324.186-.266.365-.648.295-.984-.051-.247-.198-.401-.408-.527zM57.197 15.534c.198-.016.397-.006.591.031.593.119.883.556 1.2 1.021.018-.163.031-.339.069-.498a.501.501 0 0 1 .279-.348c.24-.127.754-.136 1.005-.043.183.068.387.227.45.419.187.567.114 6.116.006 6.875-.071.5-.226.993-.479 1.431-.407.707-1.099 1.168-1.876 1.379-1.096.296-2.343.202-3.321-.388-.436-.263-.641-.6-.756-1.087.037-.176.08-.347.231-.461.49-.37 1.549.251 2.092.352.468.087.973.039 1.363-.255.642-.484.748-1.379.857-2.116-.43.459-.838.829-1.471.984a2.586 2.586 0 0 1-2.029-.339c-.777-.515-1.211-1.399-1.37-2.296-.194-1.092-.025-2.399.638-3.314.632-.871 1.5-1.192 2.521-1.349zm.116 1.673c-.511.193-.794.429-1.012.939-.27.626-.278 1.533-.014 2.161.139.331.418.68.77.799.232.078.513.044.751.028.421-.15.66-.328.86-.736.307-.628.317-1.513.083-2.169-.136-.381-.405-.755-.786-.92a1.52 1.52 0 0 0-.651-.101zM99.652 15.593c.502-.067.996-.044 1.47.152.655.271.995.765 1.254 1.395.133-.333.279-.668.514-.944.372-.437.859-.611 1.422-.633.649-.025 1.314.124 1.791.59.313.307.505.718.61 1.139.279 1.121.123 3.53.127 4.797.001.194.025.807-.127.922-.258.194-1.172.151-1.494.106-.188-.026-.304-.127-.381-.297-.119-.262-.055-.73-.052-1.02.012-.94.244-3.537-.312-4.222a.722.722 0 0 0-.513-.27c-.299-.021-.68.082-.898.296-.771.755-.515 3.44-.509 4.496.002.213.009.446-.017.658-.012.094-.044.202-.13.251-.329.188-1.128.16-1.49.076-.189-.044-.269-.108-.337-.291-.112-.304-.049-.753-.044-1.074.017-.942.24-3.283-.239-3.989a.892.892 0 0 0-.61-.382c-.286-.047-.584-.009-.818.175-.937.74-.681 3.332-.676 4.403.001.257.054.626-.006.867-.024.1-.054.162-.14.218-.301.198-1.118.155-1.478.084-.152-.03-.248-.123-.314-.26-.092-.195-.12-5.828-.085-6.386a1.19 1.19 0 0 1 .113-.461.719.719 0 0 1 .433-.357c.446-.144 1.002.015 1.396.234.095.352.027.813.012 1.18.046-.094.093-.187.141-.279.348-.672.675-.946 1.385-1.172zM91.546 15.622a3.79 3.79 0 1 1 .158 7.578 3.79 3.79 0 0 1-.158-7.578zm-.255 1.649c-.557.248-.86.532-1.076 1.114-.258.696-.216 1.669.114 2.334.178.358.455.649.84.777.264.088.51.102.78.039.534-.224.854-.509 1.074-1.056.275-.686.272-1.604-.044-2.276-.198-.421-.55-.768-1.001-.901-.221-.065-.46-.051-.686-.03zM49.542 15.633a3.788 3.788 0 1 1 .34 7.57 3.788 3.788 0 0 1-.339-7.571zm.59 1.688c-.242-.083-.491-.082-.741-.05-.559.276-.879.565-1.092 1.176-.241.692-.206 1.68.142 2.33.19.355.477.614.865.733.238.073.508.079.75.021.533-.221.846-.508 1.06-1.055.272-.693.249-1.608-.065-2.285-.185-.398-.499-.726-.919-.87z" />
            <path
                d="M83.056 15.675a3.787 3.787 0 0 1 4.124 5.132 3.787 3.787 0 1 1-4.124-5.132zm.309 1.592c-.561.239-.884.51-1.111 1.091-.266.681-.24 1.625.075 2.288.19.399.514.728.941.864.214.068.457.067.677.04.56-.236.886-.501 1.118-1.082.269-.676.265-1.608-.049-2.269-.186-.392-.504-.723-.919-.87-.234-.083-.488-.082-.733-.061zM64.132 15.597a4 4 0 0 1 1.397.061c.709.164 1.303.577 1.665 1.213.193.34.305.715.359 1.101.083.598.13 4.376-.006 4.896-.114.146-.229.198-.406.236-.303.064-.967.103-1.212-.124-.214-.198-.17-.611-.173-.877-.355.525-.713.948-1.359 1.11-.722.18-1.391-.031-2.013-.39-.265-.244-.466-.494-.58-.84-.192-.584-.13-1.372.169-1.91.725-1.305 2.434-1.227 3.684-1.595l.078-.024c-.05-.156-.099-.316-.164-.466-.707-1.63-2.47.151-3.322-.297a.712.712 0 0 1-.34-.46c-.058-.248.009-.408.144-.614.458-.698 1.316-.874 2.08-1.02zm1.519 4.356c-.52.143-1.494.3-1.804.771a.586.586 0 0 0-.044.525c.046.119.137.224.216.322.537.036.873-.003 1.284-.376.249-.227.477-.591.465-.943-.003-.087-.028-.176-.048-.26l-.07-.04zM42.942 17c.186-.591 1.634-3.42 2.095-3.685.24-.138 1.519-.159 1.776-.041.165.076.183.12.257.274-.132.732-1.75 3.19-2.228 3.991l-.841 1.398c.003.84.151 3.406-.142 4.014a.71.71 0 0 1-.304.152c-.395.092-1.18.065-1.528-.154-.269-.355-.129-3.3-.128-3.951-.43-.687-3.204-5.116-3.131-5.539.092-.132.151-.165.299-.223.468-.014 1.419-.138 1.806.097.502.305 1.881 3.045 2.068 3.668zM77.294 13.234c.491-.013 1.294-.135 1.717.118.119.808.072 1.664.074 2.479l.005 3.776c0 .986.108 2.172-.019 3.14-.025.193-.144.256-.284.366-.511.017-1.298.143-1.719-.189-.099-.378-.161-9.095-.066-9.439.045-.163.153-.182.291-.252zM19.109 26.86c.677.241 1.358.433 2.068.549 1.224.198 2.645.14 3.744.778.812.471 1.643 1.573 1.872 2.487.042.168.03.181-.056.32-.85.306-1.675.233-2.52-.044-2.036-.666-4.112-2.15-5.109-4.09zM18.726 26.865c.043-.004.084.019.126.031-.002.019-.002.039-.006.059-.105.433-1.781 2.2-2.168 2.507-1.338 1.056-3.324 1.895-5.05 1.689-.046-.01-.11-.023-.152-.042-.093-.043-.152-.077-.176-.178-.065-.27.088-.583.211-.818.395-.756 1.014-1.642 1.79-2.051.956-.503 2.368-.501 3.43-.69.681-.121 1.336-.306 1.996-.507z" />
        </symbol>
        <symbol id="icon-pop-up-close" viewBox="0 0 32 32">
            <path
                d="m22.835 22.364-.471.471a.668.668 0 0 1-.943 0L16 17.414l-5.421 5.421a.668.668 0 0 1-.943 0l-.471-.471a.668.668 0 0 1 0-.943L14.586 16l-5.421-5.421a.668.668 0 0 1 0-.943l.471-.471c.26-.26.682-.26.943 0L16 14.586l5.421-5.421c.26-.26.683-.26.943 0l.471.471c.26.26.26.682 0 .943L17.414 16l5.421 5.421c.26.26.26.683 0 .943z" />
        </symbol>
        <symbol id="icon-youtube" viewBox="0 0 32 32">
            <path
                d="M28.279 9.978a3.199 3.199 0 0 0-2.255-2.261C24.02 7.167 16 7.158 16 7.158s-8.018-.009-10.024.517A3.272 3.272 0 0 0 3.715 9.95c-.529 2.004-.534 6.162-.534 6.162s-.005 4.178.52 6.162a3.204 3.204 0 0 0 2.257 2.259c2.025.55 10.022.559 10.022.559s8.019.009 10.024-.516a3.221 3.221 0 0 0 2.262-2.257c.53-2.003.534-6.159.534-6.159s.026-4.179-.521-6.184zm-14.844 9.987.006-7.68 6.665 3.846-6.671 3.834z" />
        </symbol>
        <symbol id="icon-check" viewBox="0 0 31 32">
            <path
                d="M26.045 10.44l-13.568 13.568c-0.12 0.121-0.284 0.189-0.454 0.189s-0.334-0.068-0.454-0.189l-6.899-6.899c-0.121-0.12-0.189-0.284-0.189-0.454s0.068-0.334 0.189-0.454l0.896-0.896c0.12-0.121 0.284-0.189 0.454-0.189s0.334 0.068 0.454 0.189l5.542 5.542 12.224-12.224c0.253-0.245 0.656-0.245 0.909 0l0.896 0.909c0.121 0.12 0.189 0.284 0.189 0.454s-0.068 0.334-0.189 0.454z"></path>
        </symbol>

        <symbol id="icon-instagram" viewBox="0 0 31 32">
            <path
                d="M9.379 4.969c-2.437 0.324-4.552 2.121-5.251 4.462-0.274 0.915-0.262 0.618-0.262 7.030v5.99l0.141 0.553c0.644 2.54 2.587 4.376 5.137 4.859 0.517 0.097 11.917 0.097 12.434 0 1.346-0.256 2.512-0.895 3.414-1.8l0-0c0.879-0.874 1.407-1.812 1.727-3.073l0.137-0.539v-5.99c0-4.792-0.014-6.052-0.068-6.298-0.303-1.368-0.819-2.36-1.709-3.281-0.91-0.942-1.934-1.517-3.292-1.848-0.325-0.078-0.896-0.087-6.221-0.097-3.224-0.006-6.008 0.009-6.186 0.032zM21.34 7.25c1.247 0.273 2.264 1.080 2.815 2.164l0.011 0.023c0.468 0.954 0.435 0.412 0.435 6.998 0 5.409-0.006 5.834-0.091 6.144-0.401 1.444-1.504 2.562-2.91 2.975l-0.030 0.008-0.399 0.115h-11.622l-0.399-0.115c-1.194-0.341-2.15-1.167-2.659-2.245l-0.011-0.025c-0.384-0.814-0.361-0.367-0.361-6.881v-5.837l0.12-0.384c0.242-0.776 0.588-1.341 1.143-1.875 0.562-0.539 1.242-0.906 1.962-1.061 0.557-0.119 11.419-0.122 11.996-0.003zM21.043 9.138c-0.509 0.175-0.869 0.65-0.869 1.208 0 0.321 0.119 0.614 0.314 0.838l-0.001-0.002c0.68 0.773 1.924 0.468 2.194-0.535 0.197-0.728-0.355-1.485-1.135-1.559-0.036-0.003-0.079-0.005-0.121-0.005-0.136 0-0.267 0.020-0.391 0.056l0.010-0.002zM14.874 10.705c-2.268 0.188-4.146 1.674-4.901 3.706l-0.013 0.040c-0.257 0.721-0.344 1.204-0.348 1.934-0.008 1.574 0.52 2.889 1.618 4.028 0.71 0.745 1.615 1.299 2.634 1.58l0.040 0.009c0.472 0.131 0.579 0.141 1.457 0.141s0.984-0.010 1.457-0.141c0.675-0.199 1.265-0.475 1.802-0.824l-0.026 0.016c0.509-0.376 0.951-0.797 1.338-1.265l0.010-0.013c1.741-2.266 1.522-5.528-0.507-7.555-0.929-0.928-2.249-1.556-3.443-1.638-0.248-0.016-0.43-0.031-0.611-0.049l0.084 0.007c-0.027-0.001-0.059-0.001-0.091-0.001-0.175 0-0.349 0.009-0.52 0.026l0.022-0.002zM16.268 13.034c1.188 0.302 2.188 1.315 2.499 2.531 0.104 0.402 0.116 1.187 0.027 1.613-0.074 0.355-0.333 0.942-0.556 1.263-0.724 1.047-2.071 1.651-3.299 1.481-1.172-0.163-2.143-0.833-2.671-1.848-0.201-0.352-0.339-0.766-0.384-1.208l-0.001-0.013c-0.016-0.127-0.026-0.275-0.026-0.425 0-1.747 1.275-3.197 2.946-3.469l0.020-0.003c0.146-0.017 0.314-0.027 0.485-0.027 0.34 0 0.671 0.038 0.99 0.11l-0.030-0.006z"></path>
        </symbol>
        <symbol id="icon-linkedin" viewBox="0 0 31 32">
            <path
                d="M5.248 4.987c-0.668 0.211-1.088 0.616-1.302 1.247l-0.108 0.32 0.014 9.971 0.013 9.971 0.147 0.319c0.18 0.39 0.58 0.783 0.992 0.977l0.294 0.138h20.122l0.294-0.138c0.43-0.213 0.773-0.55 0.986-0.964l0.006-0.012 0.147-0.319 0.013-9.971 0.014-9.971-0.108-0.32c-0.189-0.562-0.511-0.906-1.097-1.175l-0.256-0.118-9.984-0.010c-7.951-0.008-10.026 0.004-10.189 0.056zM9.393 8.168c0.75 0.12 1.411 0.85 1.494 1.652 0.114 1.089-0.568 1.983-1.645 2.153-0.091 0.015-0.195 0.024-0.302 0.024-0.778 0-1.449-0.458-1.758-1.119l-0.005-0.012c-0.122-0.261-0.137-0.353-0.136-0.831 0.001-0.5 0.013-0.559 0.163-0.847 0.296-0.571 0.82-0.96 1.409-1.046 0.269-0.040 0.396-0.035 0.78 0.026zM20.444 13.391c0.712 0.183 1.541 0.713 1.992 1.274 0.516 0.643 0.829 1.466 0.957 2.513 0.036 0.293 0.056 1.718 0.056 3.904v3.443h-3.379l-0.004-1.958c-0.006-3.037-0.064-4.488-0.196-4.943-0.063-0.215-0.141-0.402-0.238-0.578l0.007 0.014c-0.347-0.541-0.933-0.81-1.676-0.767-0.767 0.058-1.417 0.51-1.753 1.152l-0.006 0.012c-0.305 0.602-0.298 0.525-0.321 3.932l-0.022 3.136h-3.37v-10.957h3.223l0.014 0.742 0.014 0.744 0.256-0.298c0.603-0.706 1.421-1.212 2.352-1.417l0.029-0.005c0.424-0.091 1.614-0.056 2.063 0.058zM10.65 19.046v5.478h-3.379v-10.957h3.379v5.478z"></path>
        </symbol>
    </defs>
</svg>